<svg id="Layer_1" data-name="Layer 1" xmlns="http://www.w3.org/2000/svg" viewBox="0 0 391 506.77"><defs><style>.cls-1,.cls-12{fill:#2f3686;}.cls-2{fill:#5ea55c;}.cls-3{fill:#faf439;}.cls-4{fill:#5da353;}.cls-5,.cls-7{fill:none;}.cls-6{font-size:25.71px;}.cls-11,.cls-13,.cls-6,.cls-9{fill:#fff;}.cls-13,.cls-6{font-family:PlantagenetCherokee, Plantagenet Cherokee;}.cls-7{stroke:#fff;stroke-width:0.75px;}.cls-12,.cls-7{stroke-miterlimit:10;}.cls-8{writing-mode:tb;text-orientation:upright;glyph-orientation-vertical:0deg;}.cls-9{font-size:73.47px;font-family:CharlemagneStd-Bold, Charlemagne Std;font-weight:700;letter-spacing:-0.09em;}.cls-10{letter-spacing:-0.1em;}.cls-12{stroke:#2f3686;}.cls-13{font-size:25.71px;}</style></defs><title>ACSSiteIcon</title><circle class="cls-1" cx="258.5" cy="269.55" r="195.5" transform="translate(-177.83 256.37) rotate(-44.66)"/><path class="cls-2" d="M258.63,275.42,388.11,405.61c-35,32.09-81.58,50-130,49.82s-94.88-18.25-129.69-50.52Z" transform="translate(-63 -3.15)"/><path class="cls-3" d="M252.47,269.23,122.29,398.7c-32.09-35-50-81.58-49.82-130S90.71,173.85,123,139Z" transform="translate(-63 -3.15)"/><path class="cls-4" d="M258.83,263.57,129.35,133.39c35-32.09,81.58-50,130-49.82S354.2,101.82,389,134.1Z" transform="translate(-63 -3.15)"/><path class="cls-3" d="M264.65,269.44,394.84,140c32.09,35,50,81.58,49.82,130s-18.25,94.88-50.52,129.69Z" transform="translate(-63 -3.15)"/><line class="cls-5" x1="2.77" y1="83.36" x2="388.91" y2="453.34"/><polygon class="cls-1" points="221.71 63.81 221.19 63.81 221.41 63.3 221.71 63.81"/><path class="cls-1" d="M176.7,27.61l.29,2.79h-.15a12.49,12.49,0,1,1,1.25-.07Z" transform="translate(-63 -3.15)"/><path class="cls-1" d="M213.66,25.15l-1.51,3.6a12.38,12.38,0,1,1,3,0Z" transform="translate(-63 -3.15)"/><path class="cls-1" d="M335.88,28.5a10.27,10.27,0,0,0,2.31.84l-8.56,81.59-.73-.22v4.92H184.09v-2.94l-8.93-85c.37,0,.73,0,1.1-.07l20.09,38.57-.7,1.73h1.62l-.92-1.73,15.8-37.4a9.53,9.53,0,0,0,1.47.11,10.51,10.51,0,0,0,1.54-.11l16.49,39.12L233,71l1.69-3.09,21.56-39.49a12.42,12.42,0,1,1,4.33.4l21.09,38.57-.22.51H282l-.29-.51,16.75-39.71a12.34,12.34,0,1,1,2.46.26,5,5,0,0,1-1.07-.07l16.31,38.65-.73,1.4h1.32l-.59-1.4Z" transform="translate(-63 -3.15)"/><path class="cls-1" d="M353.66,17.36a12.39,12.39,0,0,1-12.38,12.38,12.25,12.25,0,0,1-3.09-.4l.7-6.61-3,5.77a12.38,12.38,0,1,1,17.78-11.13Z" transform="translate(-63 -3.15)"/><polygon class="cls-1" points="221.41 63.3 221.71 63.81 221.19 63.81 221.41 63.3"/><polygon class="cls-1" points="256.46 63.81 255.13 63.81 255.87 62.41 256.46 63.81"/><polygon class="cls-1" points="136.11 62.08 137.03 63.81 135.41 63.81 136.11 62.08"/><path class="cls-1" d="M215.17,28.75a10.51,10.51,0,0,1-1.54.11,9.53,9.53,0,0,1-1.47-.11l1.51-3.6Z" transform="translate(-63 -3.15)"/><polygon class="cls-1" points="255.87 62.41 256.46 63.81 255.13 63.81 255.87 62.41"/><path class="cls-1" d="M338.89,22.73l-.7,6.61a10.27,10.27,0,0,1-2.31-.84Z" transform="translate(-63 -3.15)"/><path class="cls-1" d="M174.87,24.86l1.4,2.72c-.37,0-.73.07-1.1.07Z" transform="translate(-63 -3.15)"/><polygon class="cls-1" points="137.03 63.81 135.41 63.81 136.11 62.08 137.03 63.81"/><polygon class="cls-1" points="174.43 63.81 172.74 66.89 171.41 63.81 174.43 63.81"/><path class="cls-1" d="M176.26,27.58c-.37,0-.73.07-1.1.07l-.29-2.79Z" transform="translate(-63 -3.15)"/><path class="cls-1" d="M215.17,28.75a10.51,10.51,0,0,1-1.54.11,9.53,9.53,0,0,1-1.47-.11l1.51-3.6Z" transform="translate(-63 -3.15)"/><path class="cls-1" d="M338.89,22.73l-.7,6.61a10.27,10.27,0,0,1-2.31-.84Z" transform="translate(-63 -3.15)"/><rect class="cls-1" x="121.55" y="127.62" width="144.19" height="23.88"/><text class="cls-6" transform="translate(152.16 148.94)">An Mhí</text><circle class="cls-1" cx="196.21" cy="266.1" r="56.73"/><text x="-63" y="-3.15"></text><circle class="cls-7" cx="196.21" cy="266.1" r="51.88"/><text class="cls-8" x="-63" y="-3.15"></text><text class="cls-9" transform="translate(152.36 287.99)">S<tspan class="cls-10" x="34.31" y="0">A</tspan></text><polygon class="cls-11" points="189.83 246.56 189.83 251.44 184.63 251.65 184.63 254.41 189.62 254.52 190.04 266.29 193.33 268.41 193.44 254.73 198 254.73 197.84 251.49 193.54 251.33 193.54 246.56 189.83 246.56"/><path class="cls-1" d="M178.33,292.88,167.2,279V258.3L192.89,231a3.67,3.67,0,1,0-5.35-5l-23.89,25.38h-3.46c.08-.07.17-.12.25-.19a9.15,9.15,0,1,0-12.92-.62c.06.07.14.12.21.19h-24.6l36.2-36.2a1.84,1.84,0,0,0-2.6-2.6l-38.8,38.8h-.25a3.67,3.67,0,0,0-3.67,3.67c0,.08,0,.14,0,.21L92,276.69a1.84,1.84,0,1,0,2.6,2.6l21.56-21.56a3.61,3.61,0,0,0,1.54.36h26.58v24.76l-29.9,31.79a3.67,3.67,0,0,0,5.35,5l29.72-31.58H165l6.66,8.28L171.06,321a3.68,3.68,0,0,0,3.57,3.77h.1a3.67,3.67,0,0,0,3.67-3.58l.67-25.35s0-.06,0-.09A3.63,3.63,0,0,0,178.33,292.88Z" transform="translate(-63 -3.15)"/><path class="cls-1" d="M425.09,248.25h0l-31.77.17-1.78-1.51a8.42,8.42,0,0,0,1.12.11,8.57,8.57,0,1,0-8.57-8.57,8.45,8.45,0,0,0,.41,2.49l-.16-.14a3.7,3.7,0,0,0-2.25-1.89,1.82,1.82,0,0,0-2-.19l-16.53.13-.13,0a3.36,3.36,0,0,0-1.15-.18,3.67,3.67,0,0,0-3.58,3.76l.51,20.39-15.08,16.28-15.53-12.7a3.67,3.67,0,1,0-4.65,5.69l18.59,15.19a3.67,3.67,0,0,0,5.17-.52,3.6,3.6,0,0,0,.7-1.46l9.24-10a3.66,3.66,0,0,0,2.56,1.05h60.61a3.67,3.67,0,0,0,0-7.35H379.38l11.26-13.28,34.47-.19a3.67,3.67,0,0,0,0-7.35Zm-59-2.06,7.5-.06-7.29,8.59Z" transform="translate(-63 -3.15)"/><polygon class="cls-1" points="300.87 286.12 306.38 286.12 306.38 311.22 313.72 311.22 313.72 286.12 319.85 286.12 319.85 278.78 300.87 278.78 300.87 286.12"/><path class="cls-1" d="M303.78,372.31a3.67,3.67,0,0,0-5.19,0L284.64,386l-9.15-11.28.15-.06a1.84,1.84,0,0,0,1-2.4l-.33-.79a8.59,8.59,0,1,0-2.95-7.12l-1.92-4.64a3.56,3.56,0,0,0-.51-1.85l-.73-1.14h0s-.05-.07-.07-.11l-5.8-9.09a3.46,3.46,0,0,0-.32-.33c0-.06-.06-.14-.12-.2a3.44,3.44,0,0,0-.28-.21,3.57,3.57,0,0,0-1.44-.81l-.26-.07a3.62,3.62,0,0,0-3.2.79l-21.1,18.85a3.65,3.65,0,0,0-.93,4.1,1.79,1.79,0,0,0,.1.92l.77,1.87a3.54,3.54,0,0,0-.55,1.65l-1.35,25.61L220.54,416a3.67,3.67,0,1,0,5.39,5l15.72-17a16.56,16.56,0,0,0,1.32-3.67v-.11h24.57a3.67,3.67,0,0,0,3.67-3.67,3.57,3.57,0,0,0-.59-1.88,3.65,3.65,0,0,0-1-2.64l-10.33-10.57,9.16-3.8,13,16.07a3.67,3.67,0,0,0,5.17.54,3.88,3.88,0,0,1,1.69-1.55l15.44-15.2A3.67,3.67,0,0,0,303.78,372.31ZM262.29,358l-9.74,4,7.85-7Zm-2.15,34.88H243.36l.32-6.12a1.82,1.82,0,0,0,.53.35,1.84,1.84,0,0,0,1.41,0l6.33-2.62Z" transform="translate(-63 -3.15)"/><path class="cls-12" d="M258.33,459.36c-53.82,0-102.55-20.4-137.93-53.41L83.68,440.63c46.4,44,109.46,68.79,175.16,68.79C324,509.42,386.66,485,433,441.59l-37-35.37C360.6,439.06,312,459.36,258.33,459.36Z" transform="translate(-63 -3.15)"/><text class="cls-13" transform="matrix(0.86, 0.51, -0.51, 0.86, 57.08, 448.36)"> </text><text class="cls-13" transform="matrix(0.87, 0.49, -0.49, 0.87, 61.98, 451.31)">S</text><text class="cls-13" transform="translate(72.92 457.35) rotate(27.41)">t</text><text class="cls-13" transform="translate(79.44 460.73) rotate(26.48)">.</text><text class="cls-13" transform="translate(82.81 462.56) rotate(24.55)">A</text><text class="cls-13" transform="translate(99.36 470.09) rotate(21.49)">n</text><text class="cls-13" transform="translate(112.73 475.37) rotate(18.71)">d</text><text class="cls-13" transform="translate(125.36 479.62) rotate(16.31)">r</text><text class="cls-13" transform="translate(134.38 482.3) rotate(14)">e</text><text class="cls-13" transform="translate(145.89 485.29) rotate(10.62)">w</text><text class="cls-13" transform="translate(163.21 488.44) rotate(7.39)">s</text><text class="cls-13" transform="matrix(1, 0.1, -0.1, 1, 172.4, 489.62)"> </text><text class="cls-13" transform="matrix(1, 0.04, -0.04, 1, 178.38, 490.38)">A</text><text class="cls-13" transform="translate(196.5 491.04) rotate(-0.22)">.</text><text class="cls-13" transform="matrix(1, -0.05, 0.05, 1, 200.44, 491.19)">C</text><text class="cls-13" transform="translate(217.38 490.21) rotate(-5.52)">.</text><text class="cls-13" transform="translate(221.04 489.88) rotate(-6.7)"> </text><text class="cls-13" transform="translate(227.07 489.35) rotate(-9.73)">A</text><text class="cls-13" transform="matrix(0.98, -0.22, 0.22, 0.98, 242.39, 486.69)">s</text><text class="cls-13" transform="translate(251.64 484.73) rotate(-15.38)">h</text><text class="cls-13" transform="matrix(0.95, -0.32, 0.32, 0.95, 265.69, 480.86)">b</text><text class="cls-13" transform="translate(278.31 476.62) rotate(-21.58)">o</text><text class="cls-13" transform="translate(290.43 471.86) rotate(-24.52)">u</text><text class="cls-13" transform="translate(303.51 465.85) rotate(-26.94)">r</text><text class="cls-13" transform="translate(311.93 461.65) rotate(-29.23)">n</text><text class="cls-13" transform="translate(324.39 454.66) rotate(-31.6)">e</text></svg>